# xmcd
#
# Track frame offsets:
#	150
#	14852
#	35620
#	55870
#	76495
#	95605
#	122557
#	142050
#	161777
#	183925
#	201227
#
# Disc length: 3076 seconds
#
# Revision: 1
# Processed by: cddbd v1.5.2PL0 Copyright (c) Steve Scherf et al.
# Submitted via: audiograbber 1.83.01
#
DISCID=9e0c020b
DTITLE=3rd Nation - One Nation
DYEAR=1991
DGENRE=Dance
TTITLE0=Rock This Way
TTITLE1=Find This Time
TTITLE2=Shame
TTITLE3=I'll Be Over You
TTITLE4=One Nation (Altogether)
TTITLE5=Hold Me Tighter In The Rain
TTITLE6=Here We Go Again
TTITLE7=Something To Move On -92
TTITLE8=I Wanna Fall In Love With You
TTITLE9=This Is A Dream
TTITLE10=Hold Me Tighter In The Rain (Club Mix)
EXTD=TR.
EXTT0=
EXTT1=
EXTT2=
EXTT3=
EXTT4=
EXTT5=
EXTT6=
EXTT7=
EXTT8=
EXTT9=
EXTT10=
PLAYORDER=
